<svg width="19" height="18" viewBox="0 0 19 18" fill="currentColor" xmlns="http://www.w3.org/2000/svg">
  <path d="M6.87 2.51C6.69 3.15 6.6 3.82 6.6 4.5C6.6 8.58 9.92 11.9 14 11.9C14.68 11.9 15.35 11.81 15.99 11.63C14.95 14.19 12.43 16 9.5 16C5.64 16 2.5 12.86 2.5 9C2.5 6.07 4.31 3.55 6.87 2.51ZM9.5 0C4.53 0 0.5 4.03 0.5 9C0.5 13.97 4.53 18 9.5 18C14.47 18 18.5 13.97 18.5 9C18.5 8.54 18.46 8.08 18.4 7.64C17.42 9.01 15.82 9.9 14 9.9C11.02 9.9 8.6 7.48 8.6 4.5C8.6 2.69 9.49 1.08 10.86 0.0999999C10.42 0.0399999 9.96 0 9.5 0Z"/>
</svg>
