<svg width="23" height="22" viewBox="0 0 23 22" fill="none" xmlns="http://www.w3.org/2000/svg">
<path d="M11.5 8C13.15 8 14.5 9.35 14.5 11C14.5 12.65 13.15 14 11.5 14C9.85 14 8.5 12.65 8.5 11C8.5 9.35 9.85 8 11.5 8ZM11.5 6C8.74 6 6.5 8.24 6.5 11C6.5 13.76 8.74 16 11.5 16C14.26 16 16.5 13.76 16.5 11C16.5 8.24 14.26 6 11.5 6ZM1.5 12H3.5C4.05 12 4.5 11.55 4.5 11C4.5 10.45 4.05 10 3.5 10H1.5C0.95 10 0.5 10.45 0.5 11C0.5 11.55 0.95 12 1.5 12ZM19.5 12H21.5C22.05 12 22.5 11.55 22.5 11C22.5 10.45 22.05 10 21.5 10H19.5C18.95 10 18.5 10.45 18.5 11C18.5 11.55 18.95 12 19.5 12ZM10.5 1V3C10.5 3.55 10.95 4 11.5 4C12.05 4 12.5 3.55 12.5 3V1C12.5 0.45 12.05 0 11.5 0C10.95 0 10.5 0.45 10.5 1ZM10.5 19V21C10.5 21.55 10.95 22 11.5 22C12.05 22 12.5 21.55 12.5 21V19C12.5 18.45 12.05 18 11.5 18C10.95 18 10.5 18.45 10.5 19ZM5.49 3.58C5.1 3.19 4.46 3.19 4.08 3.58C3.69 3.97 3.69 4.61 4.08 4.99L5.14 6.05C5.53 6.44 6.17 6.44 6.55 6.05C6.93 5.66 6.94 5.02 6.55 4.64L5.49 3.58ZM17.86 15.95C17.47 15.56 16.83 15.56 16.45 15.95C16.06 16.34 16.06 16.98 16.45 17.36L17.51 18.42C17.9 18.81 18.54 18.81 18.92 18.42C19.31 18.03 19.31 17.39 18.92 17.01L17.86 15.95ZM18.92 4.99C19.31 4.6 19.31 3.96 18.92 3.58C18.53 3.19 17.89 3.19 17.51 3.58L16.45 4.64C16.06 5.03 16.06 5.67 16.45 6.05C16.84 6.43 17.48 6.44 17.86 6.05L18.92 4.99ZM6.55 17.36C6.94 16.97 6.94 16.33 6.55 15.95C6.16 15.56 5.52 15.56 5.14 15.95L4.08 17.01C3.69 17.4 3.69 18.04 4.08 18.42C4.47 18.8 5.11 18.81 5.49 18.42L6.55 17.36Z" fill="#E2E2E9"/>
</svg>
